<svg width="65" height="23" viewBox="0 0 65 23" fill="none" xmlns="http://www.w3.org/2000/svg">
<g id="Group 17">
<rect id="Rectangle 54" width="65" height="23" rx="11.5" fill="white"/>
<path id="Star 4" d="M33 5L34.3471 9.1459H38.7063L35.1796 11.7082L36.5267 15.8541L33 13.2918L29.4733 15.8541L30.8204 11.7082L27.2937 9.1459H31.6529L33 5Z" fill="#9C7FF5"/>
<path id="Star 5" d="M15 5L16.3471 9.1459H20.7063L17.1796 11.7082L18.5267 15.8541L15 13.2918L11.4733 15.8541L12.8204 11.7082L9.29366 9.1459H13.6529L15 5Z" fill="#9C7FF5"/>
<path id="Star 6" d="M51 5L52.3471 9.1459H56.7063L53.1796 11.7082L54.5267 15.8541L51 13.2918L47.4733 15.8541L48.8204 11.7082L45.2937 9.1459H49.6529L51 5Z" fill="#9C7FF5"/>
</g>
</svg>
