<svg width="32" height="32" viewBox="0 0 32 32" fill="none" xmlns="http://www.w3.org/2000/svg">
<g id="inventory_FILL0_wght400_GRAD0_opsz48 1">
<path id="Vector" d="M20.6667 26.7L15.3333 21.3667L16.7667 19.9333L20.6667 23.8333L28.6333 15.8667L30.0667 17.3L20.6667 26.7ZM28 12.9H26V6H24V9H8V6H6V26H14.3667V28H6C5.42222 28 4.94444 27.8111 4.56667 27.4333C4.18889 27.0556 4 26.5778 4 26V6C4 5.42222 4.18889 4.94445 4.56667 4.56667C4.94444 4.18889 5.42222 4 6 4H12.7333C12.8889 3.22222 13.2722 2.58334 13.8833 2.08334C14.4944 1.58334 15.2 1.33334 16 1.33334C16.8 1.33334 17.5056 1.58334 18.1167 2.08334C18.7278 2.58334 19.1111 3.22222 19.2667 4H26C26.5778 4 27.0556 4.18889 27.4333 4.56667C27.8111 4.94445 28 5.42222 28 6V12.9ZM16 6C16.3778 6 16.6944 5.87222 16.95 5.61667C17.2056 5.36111 17.3333 5.04445 17.3333 4.66667C17.3333 4.28889 17.2056 3.97222 16.95 3.71667C16.6944 3.46111 16.3778 3.33334 16 3.33334C15.6222 3.33334 15.3056 3.46111 15.05 3.71667C14.7944 3.97222 14.6667 4.28889 14.6667 4.66667C14.6667 5.04445 14.7944 5.36111 15.05 5.61667C15.3056 5.87222 15.6222 6 16 6Z" fill="#734CEB"/>
</g>
</svg>
