<svg width="32" height="32" viewBox="0 0 32 32" fill="none" xmlns="http://www.w3.org/2000/svg">
<g id="feedback_FILL0_wght400_GRAD0_opsz48 1">
<path id="Vector" d="M15.9992 19.7667C16.3107 19.7667 16.5721 19.6613 16.7832 19.4506C16.9943 19.2399 17.0998 18.9788 17.0998 18.6673C17.0998 18.3558 16.9945 18.0944 16.7838 17.8833C16.573 17.6722 16.3119 17.5667 16.0004 17.5667C15.6889 17.5667 15.4276 17.672 15.2165 17.8827C15.0054 18.0935 14.8998 18.3546 14.8998 18.6661C14.8998 18.9776 15.0052 19.2389 15.2159 19.45C15.4266 19.6611 15.6877 19.7667 15.9992 19.7667ZM14.9998 15.0333H16.9998V6.66666H14.9998V15.0333ZM2.6665 29.3333V4.66666C2.6665 4.13333 2.8665 3.66666 3.2665 3.26666C3.6665 2.86666 4.13317 2.66666 4.6665 2.66666H27.3332C27.8665 2.66666 28.3332 2.86666 28.7332 3.26666C29.1332 3.66666 29.3332 4.13333 29.3332 4.66666V22C29.3332 22.5333 29.1332 23 28.7332 23.4C28.3332 23.8 27.8665 24 27.3332 24H7.99984L2.6665 29.3333ZM7.13317 22H27.3332V4.66666H4.6665V24.6667L7.13317 22Z" fill="#734CEB"/>
</g>
</svg>
