<svg width="32" height="32" viewBox="0 0 32 32" fill="none" xmlns="http://www.w3.org/2000/svg">
<g id="psychology_alt_FILL0_wght400_GRAD0_opsz48 1">
<path id="Vector" d="M8 29.3333V23.6C6.73333 22.4444 5.75 21.0944 5.05 19.55C4.35 18.0056 4 16.3778 4 14.6667C4 11.3333 5.16667 8.5 7.5 6.16666C9.83333 3.83333 12.6667 2.66666 16 2.66666C18.7778 2.66666 21.2389 3.48333 23.3833 5.11666C25.5278 6.75 26.9222 8.87777 27.5667 11.5L29.4 18.7667C29.4889 19.0778 29.4333 19.3611 29.2333 19.6167C29.0333 19.8722 28.7667 20 28.4333 20H25.3333V24.6667C25.3333 25.2167 25.1375 25.6875 24.7458 26.0792C24.3542 26.4708 23.8833 26.6667 23.3333 26.6667H20V29.3333H18V24.6667H23.3333V18H27.1333L25.6333 12C25.1 9.84444 23.9333 8.08333 22.1333 6.71666C20.3333 5.35 18.2889 4.66666 16 4.66666C13.2222 4.66666 10.8611 5.62777 8.91667 7.55C6.97222 9.47222 6 11.8171 6 14.5847C6 16.0162 6.29249 17.3761 6.87747 18.6644C7.46247 19.9528 8.2922 21.098 9.36667 22.1L10 22.7V29.3333H8ZM16 21.3333C16.3778 21.3333 16.6944 21.2056 16.95 20.95C17.2056 20.6944 17.3333 20.3778 17.3333 20C17.3333 19.6222 17.2056 19.3056 16.95 19.05C16.6944 18.7944 16.3778 18.6667 16 18.6667C15.6222 18.6667 15.3056 18.7944 15.05 19.05C14.7944 19.3056 14.6667 19.6222 14.6667 20C14.6667 20.3778 14.7944 20.6944 15.05 20.95C15.3056 21.2056 15.6222 21.3333 16 21.3333ZM15 17.0667H17.0333C17.0333 16.5111 17.1056 16.0611 17.25 15.7167C17.3944 15.3722 17.6889 14.9556 18.1333 14.4667C18.5333 14.0222 18.9222 13.5722 19.3 13.1167C19.6778 12.6611 19.8667 12.0667 19.8667 11.3333C19.8667 10.4 19.5056 9.61111 18.7833 8.96666C18.0611 8.32222 17.1667 8 16.1 8C15.2111 8 14.4056 8.25555 13.6833 8.76666C12.9611 9.27777 12.4556 9.94444 12.1667 10.7667L14 11.5333C14.1556 11.0444 14.4278 10.65 14.8167 10.35C15.2056 10.05 15.6333 9.9 16.1 9.9C16.5889 9.9 16.9944 10.0333 17.3167 10.3C17.6389 10.5667 17.8 10.9111 17.8 11.3333C17.8 11.8 17.6611 12.2167 17.3833 12.5833C17.1056 12.95 16.7778 13.3222 16.4 13.7C15.9556 14.1667 15.6111 14.6333 15.3667 15.1C15.1222 15.5667 15 16.2222 15 17.0667Z" fill="#734CEB"/>
</g>
</svg>
